<svg width="25" height="24" viewBox="0 0 25 24" fill="none" xmlns="http://www.w3.org/2000/svg">
<mask id="mask0_67_486" style="mask-type:alpha" maskUnits="userSpaceOnUse" x="0" y="0" width="25" height="24">
<rect x="0.5" width="24" height="24" fill="#D9D9D9"/>
</mask>
<g mask="url(#mask0_67_486)">
<path d="M3.8 21.1C3.3 21.1 2.875 20.925 2.525 20.575C2.175 20.225 2 19.8 2 19.3V9.95C2 9.75 2.07067 9.575 2.212 9.425C2.354 9.275 2.53333 9.2 2.75 9.2C2.96667 9.2 3.146 9.275 3.288 9.425C3.42933 9.575 3.5 9.75 3.5 9.95V19.3C3.5 19.3833 3.52933 19.4543 3.588 19.513C3.646 19.571 3.71667 19.6 3.8 19.6H19C19.2167 19.6 19.396 19.6707 19.538 19.812C19.6793 19.954 19.75 20.1333 19.75 20.35C19.75 20.5667 19.6793 20.746 19.538 20.888C19.396 21.0293 19.2167 21.1 19 21.1H3.8ZM7.3 17.6C6.8 17.6 6.375 17.425 6.025 17.075C5.675 16.725 5.5 16.3 5.5 15.8V7.4C5.5 6.9 5.675 6.475 6.025 6.125C6.375 5.775 6.8 5.6 7.3 5.6H10.65V3.8C10.65 3.3 10.825 2.875 11.175 2.525C11.525 2.175 11.95 2 12.45 2H16.05C16.55 2 16.975 2.175 17.325 2.525C17.675 2.875 17.85 3.3 17.85 3.8V5.6H21.2C21.7 5.6 22.125 5.775 22.475 6.125C22.825 6.475 23 6.9 23 7.4V15.8C23 16.3 22.825 16.725 22.475 17.075C22.125 17.425 21.7 17.6 21.2 17.6H7.3ZM12.15 5.6H16.35V3.8C16.35 3.71667 16.321 3.64567 16.263 3.587C16.2043 3.529 16.1333 3.5 16.05 3.5H12.45C12.3667 3.5 12.296 3.529 12.238 3.587C12.1793 3.64567 12.15 3.71667 12.15 3.8V5.6ZM7.3 16.1H21.2C21.2833 16.1 21.3543 16.0707 21.413 16.012C21.471 15.954 21.5 15.8833 21.5 15.8V7.4C21.5 7.31667 21.471 7.24567 21.413 7.187C21.3543 7.129 21.2833 7.1 21.2 7.1H7.3C7.21667 7.1 7.146 7.129 7.088 7.187C7.02933 7.24567 7 7.31667 7 7.4V15.8C7 15.8833 7.02933 15.954 7.088 16.012C7.146 16.0707 7.21667 16.1 7.3 16.1Z" fill="#D6D6D6"/>
</g>
</svg>
