<svg width="16" height="16" viewBox="0 0 16 16" fill="none" xmlns="http://www.w3.org/2000/svg">
<g clip-path="url(#clip0_67_352)">
<path d="M9.36244 0.5H6.94944L8.15619 2.9785L9.36244 0.5ZM11.2509 0.7475L11.0889 3.514L13.3404 1.987L11.2509 0.7475ZM5.06094 0.7475L2.97119 1.987L5.22244 3.514L5.06094 0.7475Z" fill="#0859C6"/>
<path d="M15.4533 10.0395C15.4448 9.92825 15.4365 9.82225 15.4305 9.7225C15.3793 8.86025 15.4198 6.21425 15.4203 6.1875C15.4203 5.5285 15.0185 4.9615 14.2923 5.02275C14.1048 4.1645 13.3405 3.93025 12.9163 4.23375C12.5668 3.45375 11.255 3.51375 10.976 4.353C10.3258 4.02425 9.6575 4.657 9.6575 5.49925V8.2815C9.355 7.958 9.00925 7.78275 8.65075 7.78275C8.4125 7.78275 8.1915 7.86325 8.00875 8.01275C7.82325 7.8205 7.58825 7.7105 7.33275 7.7105C6.987 7.7105 6.65275 7.89425 6.3515 8.24175V5.49925C6.3515 4.33675 5.28175 4.09325 4.94675 4.33675C4.64225 3.56325 3.58025 3.446 3.09275 4.23375C2.612 3.993 1.8625 4.25075 1.71675 5.023C1.05825 4.89925 0.588751 5.52875 0.588751 6.18C0.589251 6.2145 0.660501 8.841 0.578501 9.72275C0.465001 10.9462 0.418001 11.811 0.841251 12.9067C0.985501 13.28 1.23 13.6077 1.54525 13.8722C1.72975 14.6287 1.65225 15.2087 1.65125 15.214L1.61 15.5H5.3145L5.61075 15.4992L5.56075 15.207C5.55975 15.2015 5.475 14.6642 5.639 13.9137C6.18725 13.496 6.6235 12.8972 6.898 12.1492C7.0065 11.8547 7.133 11.553 7.2675 11.2335C7.388 10.9467 7.98775 9.675 7.98775 9.675C7.98775 9.675 8.621 10.9467 8.7415 11.2335C8.87575 11.553 9.0025 11.8547 9.11075 12.1495C9.38575 12.897 9.82175 13.496 10.3703 13.9137C10.534 14.6642 10.4493 15.201 10.4485 15.2062L10.3963 15.5H14.3988L14.3578 15.214C14.3568 15.2082 14.2778 14.6342 14.4638 13.8722C14.7793 13.6075 15.0235 13.28 15.1678 12.9067C15.5908 11.8107 15.5113 10.787 15.4533 10.0395ZM5.0405 15H1.917C1.92225 14.8175 1.925 14.3835 1.8 14.0085C2.206 14.3287 2.698 14.5867 3.611 14.5867C4.137 14.5867 4.6285 14.4722 5.07075 14.2602C5.0397 14.5055 5.02958 14.753 5.0405 15M7.1605 10.1702C6.92325 10.7925 6.642 11.3987 6.429 11.977C5.87675 13.48 4.45575 14.3785 3.361 14.3785C2.3355 14.3785 1.435 13.5807 1.11575 12.7532C0.672501 11.605 0.894501 10.477 0.938751 9.7325C0.991501 8.84125 1.0575 7.07425 1.035 6.18825C1.02325 5.72625 1.4175 5.20375 1.8705 5.407V8.77425L2.1725 9.01475V5.31375C2.1725 4.54775 2.865 4.43825 3.0925 4.68825V8.76675L3.39325 9.0145V4.75125C3.39325 3.8835 4.65975 3.8445 4.65975 4.7525V8.767L4.93125 9.00875L4.93775 4.7995C5.20325 4.5495 5.852 4.751 5.852 5.4995V9.60925C4.7225 9.55875 3.09075 10.3905 3.33525 12.216C3.33525 10.4152 4.89775 9.99625 5.7715 9.99625C6.0945 9.99625 6.185 9.49625 6.2325 9.27425C6.5655 7.7065 7.6065 8.0085 7.692 8.39975C7.59525 8.5685 7.606 8.767 7.63725 8.91825C7.65075 9.00225 7.67425 9.08375 7.7045 9.16275C7.555 9.45325 7.3095 9.7805 7.1605 10.1702M14.092 15H10.9688C10.9773 14.82 10.9758 14.566 10.9383 14.2602C11.3941 14.4776 11.8932 14.5892 12.3983 14.5867C13.1915 14.5867 13.8163 14.407 14.2375 14.0477C14.1048 14.4225 14.0868 14.8175 14.092 15M14.9558 12.7507C14.6365 13.5782 13.6443 14.3785 12.6188 14.3785C11.524 14.3785 10.1818 13.4867 9.6465 11.9775C8.9015 9.8765 7.784 9.012 8.25625 8.28525C8.56675 7.8075 9.3885 7.9345 9.75175 9.35125C9.808 9.571 9.96625 9.99625 10.237 9.99625C11.1108 9.99625 12.673 10.4152 12.673 12.216C12.9178 10.3905 11.2858 9.55875 10.1565 9.60925V5.49925C10.1565 4.9305 10.5365 4.493 11.028 4.7465V9.01625L11.3333 8.76675V4.68225C11.4188 3.915 12.5088 3.94625 12.6338 4.657V9.01475L12.9183 8.767V4.64925C13.2785 4.282 13.9405 4.571 13.9405 5.157V9.03575L14.217 8.788L14.214 5.485C14.6278 5.321 15.073 5.6335 15.065 6.11C15.065 6.11 15.059 8.797 15.112 9.68825C15.1565 10.4327 15.3993 11.6025 14.9558 12.7507" fill="#0859C6"/>
</g>
<defs>
<clipPath id="clip0_67_352">
<rect width="16" height="16" fill="white"/>
</clipPath>
</defs>
</svg>
