<svg width="24" height="24" viewBox="0 0 24 24" fill="none" xmlns="http://www.w3.org/2000/svg">
<mask id="mask0_22_526" style="mask-type:alpha" maskUnits="userSpaceOnUse" x="0" y="0" width="24" height="24">
<rect width="24" height="24" fill="#D9D9D9"/>
</mask>
<g mask="url(#mask0_22_526)">
<path d="M8.8749 17.125C8.7249 16.975 8.6499 16.8 8.6499 16.6C8.6499 16.4 8.7249 16.225 8.8749 16.075L12.9499 12L8.8749 7.92499C8.7249 7.77499 8.6499 7.59999 8.6499 7.39999C8.6499 7.19999 8.7249 7.02499 8.8749 6.87499C9.0249 6.72499 9.1999 6.64999 9.3999 6.64999C9.5999 6.64999 9.7749 6.72499 9.9249 6.87499L14.4249 11.375C14.5082 11.4583 14.5709 11.554 14.6129 11.662C14.6542 11.7707 14.6749 11.8833 14.6749 12C14.6749 12.1167 14.6542 12.229 14.6129 12.337C14.5709 12.4457 14.5082 12.5417 14.4249 12.625L9.9249 17.125C9.7749 17.275 9.5999 17.35 9.3999 17.35C9.1999 17.35 9.0249 17.275 8.8749 17.125Z" fill="#141414"/>
</g>
</svg>
