<svg width="25" height="24" viewBox="0 0 25 24" fill="none" xmlns="http://www.w3.org/2000/svg">
<mask id="mask0_67_540" style="mask-type:alpha" maskUnits="userSpaceOnUse" x="0" y="0" width="25" height="24">
<rect x="0.5" width="24" height="24" fill="#D9D9D9"/>
</mask>
<g mask="url(#mask0_67_540)">
<path d="M12.5 21.5C11.1833 21.5 9.95 21.25 8.8 20.75C7.65 20.25 6.64567 19.5707 5.787 18.712C4.929 17.854 4.25 16.85 3.75 15.7C3.25 14.55 3 13.3167 3 12C3 10.6833 3.25 9.45 3.75 8.3C4.25 7.15 4.929 6.14567 5.787 5.287C6.64567 4.429 7.65 3.75 8.8 3.25C9.95 2.75 11.1833 2.5 12.5 2.5C14.8833 2.5 16.9543 3.26667 18.713 4.8C20.471 6.33333 21.525 8.24167 21.875 10.525H20.325C20.0917 9.19167 19.55 7.99567 18.7 6.937C17.85 5.879 16.7833 5.09167 15.5 4.575V5C15.5 5.55 15.3043 6.02067 14.913 6.412C14.521 6.804 14.05 7 13.5 7H11.5V9C11.5 9.28333 11.4043 9.52067 11.213 9.712C11.021 9.904 10.7833 10 10.5 10H8.5V12H10.425V15H9.5L4.7 10.2C4.65 10.5 4.604 10.8 4.562 11.1C4.52067 11.4 4.5 11.7 4.5 12C4.5 14.1833 5.26667 16.0583 6.8 17.625C8.33333 19.1917 10.2333 19.9833 12.5 20V21.5ZM21.025 20.6L18.225 17.8C17.9083 18.0167 17.5627 18.1873 17.188 18.312C16.8127 18.4373 16.4167 18.5 16 18.5C14.8833 18.5 13.9377 18.1123 13.163 17.337C12.3877 16.5623 12 15.6167 12 14.5C12 13.3833 12.3877 12.4373 13.163 11.662C13.9377 10.8873 14.8833 10.5 16 10.5C17.1167 10.5 18.0623 10.8873 18.837 11.662C19.6123 12.4373 20 13.3833 20 14.5C20 14.9167 19.9333 15.3167 19.8 15.7C19.6667 16.0833 19.5 16.4333 19.3 16.75L22.1 19.525C22.2333 19.675 22.3 19.854 22.3 20.062C22.3 20.2707 22.2333 20.45 22.1 20.6C21.95 20.7333 21.7707 20.8 21.562 20.8C21.354 20.8 21.175 20.7333 21.025 20.6ZM16 17C16.7 17 17.2917 16.7583 17.775 16.275C18.2583 15.7917 18.5 15.2 18.5 14.5C18.5 13.8 18.2583 13.2083 17.775 12.725C17.2917 12.2417 16.7 12 16 12C15.3 12 14.7083 12.2417 14.225 12.725C13.7417 13.2083 13.5 13.8 13.5 14.5C13.5 15.2 13.7417 15.7917 14.225 16.275C14.7083 16.7583 15.3 17 16 17Z" fill="#D6D6D6"/>
</g>
</svg>
