<svg width="24" height="25" viewBox="0 0 24 25" fill="none" xmlns="http://www.w3.org/2000/svg">
<mask id="mask0_67_680" style="mask-type:alpha" maskUnits="userSpaceOnUse" x="0" y="0" width="24" height="25">
<rect y="0.766693" width="24" height="24" fill="#D9D9D9"/>
</mask>
<g mask="url(#mask0_67_680)">
<path d="M12 22.2667C10.7 22.2667 9.47067 22.0167 8.312 21.5167C7.154 21.0167 6.14567 20.3374 5.287 19.4787C4.429 18.6207 3.75 17.6127 3.25 16.4547C2.75 15.296 2.5 14.0667 2.5 12.7667C2.5 11.45 2.75 10.2167 3.25 9.06669C3.75 7.91669 4.429 6.91236 5.287 6.05369C6.14567 5.19569 7.154 4.51669 8.312 4.01669C9.47067 3.51669 10.7 3.26669 12 3.26669C13.3167 3.26669 14.55 3.51669 15.7 4.01669C16.85 4.51669 17.854 5.19569 18.712 6.05369C19.5707 6.91236 20.25 7.91669 20.75 9.06669C21.25 10.2167 21.5 11.45 21.5 12.7667C21.5 14.0667 21.25 15.296 20.75 16.4547C20.25 17.6127 19.5707 18.6207 18.712 19.4787C17.854 20.3374 16.85 21.0167 15.7 21.5167C14.55 22.0167 13.3167 22.2667 12 22.2667ZM12 20.7417C12.5167 20.075 12.946 19.396 13.288 18.7047C13.6293 18.0127 13.9167 17.2584 14.15 16.4417H9.85C10.0833 17.275 10.371 18.0374 10.713 18.7287C11.0543 19.4207 11.4833 20.0917 12 20.7417ZM10.075 20.4667C9.69167 19.9167 9.346 19.2917 9.038 18.5917C8.72933 17.8917 8.49167 17.175 8.325 16.4417H4.925C5.45833 17.475 6.16667 18.346 7.05 19.0547C7.93333 19.7627 8.94167 20.2334 10.075 20.4667ZM13.925 20.4667C15.0583 20.2334 16.0667 19.7627 16.95 19.0547C17.8333 18.346 18.5417 17.475 19.075 16.4417H15.675C15.475 17.175 15.225 17.8957 14.925 18.6037C14.625 19.3124 14.2917 19.9334 13.925 20.4667ZM4.3 14.9417H8.025C7.95833 14.575 7.90833 14.2124 7.875 13.8537C7.84167 13.4957 7.825 13.1334 7.825 12.7667C7.825 12.4 7.84167 12.0374 7.875 11.6787C7.90833 11.3207 7.95833 10.9584 8.025 10.5917H4.3C4.2 10.925 4.125 11.275 4.075 11.6417C4.025 12.0084 4 12.3834 4 12.7667C4 13.15 4.025 13.525 4.075 13.8917C4.125 14.2584 4.2 14.6084 4.3 14.9417ZM9.525 14.9417H14.475C14.5417 14.575 14.5917 14.2167 14.625 13.8667C14.6583 13.5167 14.675 13.15 14.675 12.7667C14.675 12.3834 14.6583 12.0167 14.625 11.6667C14.5917 11.3167 14.5417 10.9584 14.475 10.5917H9.525C9.45833 10.9584 9.40833 11.3167 9.375 11.6667C9.34167 12.0167 9.325 12.3834 9.325 12.7667C9.325 13.15 9.34167 13.5167 9.375 13.8667C9.40833 14.2167 9.45833 14.575 9.525 14.9417ZM15.975 14.9417H19.7C19.8 14.6084 19.875 14.2584 19.925 13.8917C19.975 13.525 20 13.15 20 12.7667C20 12.3834 19.975 12.0084 19.925 11.6417C19.875 11.275 19.8 10.925 19.7 10.5917H15.975C16.0417 10.9584 16.0917 11.3207 16.125 11.6787C16.1583 12.0374 16.175 12.4 16.175 12.7667C16.175 13.1334 16.1583 13.4957 16.125 13.8537C16.0917 14.2124 16.0417 14.575 15.975 14.9417ZM15.675 9.09169H19.075C18.5417 8.04169 17.8377 7.17069 16.963 6.47869C16.0877 5.78736 15.075 5.30836 13.925 5.04169C14.3083 5.62503 14.65 6.26236 14.95 6.95369C15.25 7.64569 15.4917 8.35836 15.675 9.09169ZM9.85 9.09169H14.15C13.9167 8.25836 13.621 7.48736 13.263 6.77869C12.9043 6.07069 12.4833 5.40836 12 4.79169C11.5167 5.40836 11.096 6.07069 10.738 6.77869C10.3793 7.48736 10.0833 8.25836 9.85 9.09169ZM4.925 9.09169H8.325C8.50833 8.35836 8.75 7.64569 9.05 6.95369C9.35 6.26236 9.69167 5.62503 10.075 5.04169C8.90833 5.30836 7.89167 5.78736 7.025 6.47869C6.15833 7.17069 5.45833 8.04169 4.925 9.09169Z" fill="#0859C6"/>
</g>
</svg>
