<svg width="25" height="25" viewBox="0 0 25 25" fill="none" xmlns="http://www.w3.org/2000/svg">
<mask id="mask0_67_831" style="mask-type:alpha" maskUnits="userSpaceOnUse" x="0" y="0" width="25" height="25">
<rect x="0.782196" y="0.0666504" width="24" height="24" fill="#D9D9D9"/>
</mask>
<g mask="url(#mask0_67_831)">
<path d="M5.0822 19.5667C4.5822 19.5667 4.1572 19.3917 3.8072 19.0417C3.4572 18.6917 3.2822 18.2667 3.2822 17.7667V6.36665C3.2822 5.86665 3.4572 5.44165 3.8072 5.09165C4.1572 4.74165 4.5822 4.56665 5.0822 4.56665H20.4822C20.9822 4.56665 21.4072 4.74165 21.7572 5.09165C22.1072 5.44165 22.2822 5.86665 22.2822 6.36665V17.7667C22.2822 18.2667 22.1072 18.6917 21.7572 19.0417C21.4072 19.3917 20.9822 19.5667 20.4822 19.5667H5.0822ZM12.7822 12.4667C12.8655 12.4667 12.9489 12.454 13.0322 12.4287C13.1155 12.404 13.1905 12.3667 13.2572 12.3167L20.4322 7.74165C20.5322 7.67498 20.6072 7.58332 20.6572 7.46665C20.7072 7.34998 20.7239 7.23332 20.7072 7.11665C20.6905 6.88332 20.5782 6.70832 20.3702 6.59165C20.1615 6.47498 19.9489 6.48332 19.7322 6.61665L12.7822 11.0667L5.8322 6.61665C5.61553 6.48332 5.4032 6.47498 5.1952 6.59165C4.98653 6.70832 4.87386 6.87498 4.8572 7.09165C4.84053 7.22498 4.8572 7.34998 4.9072 7.46665C4.9572 7.58332 5.0322 7.67498 5.1322 7.74165L12.3072 12.3167C12.3739 12.3667 12.4489 12.404 12.5322 12.4287C12.6155 12.454 12.6989 12.4667 12.7822 12.4667Z" fill="white"/>
</g>
</svg>
