<svg width="25" height="24" viewBox="0 0 25 24" fill="none" xmlns="http://www.w3.org/2000/svg">
<mask id="mask0_67_491" style="mask-type:alpha" maskUnits="userSpaceOnUse" x="0" y="0" width="25" height="24">
<rect x="0.5" width="24" height="24" fill="#D9D9D9"/>
</mask>
<g mask="url(#mask0_67_491)">
<path d="M12.5 11.7C11.5333 11.7 10.7083 11.354 10.025 10.662C9.34167 9.97067 9 9.15 9 8.2C9 7.23333 9.34167 6.40833 10.025 5.725C10.7083 5.04167 11.5333 4.7 12.5 4.7C13.4667 4.7 14.2917 5.04167 14.975 5.725C15.6583 6.40833 16 7.23333 16 8.2C16 9.15 15.6583 9.97067 14.975 10.662C14.2917 11.354 13.4667 11.7 12.5 11.7ZM18.475 19.3H6.525C6.09167 19.3 5.72933 19.1543 5.438 18.863C5.146 18.571 5 18.2167 5 17.8V17.075C5 16.5917 5.13333 16.1417 5.4 15.725C5.66667 15.3083 6.025 14.9833 6.475 14.75C7.45833 14.2667 8.45433 13.904 9.463 13.662C10.471 13.4207 11.4833 13.3 12.5 13.3C13.5167 13.3 14.5293 13.4207 15.538 13.662C16.546 13.904 17.5417 14.2667 18.525 14.75C18.975 14.9833 19.3333 15.3083 19.6 15.725C19.8667 16.1417 20 16.5917 20 17.075V17.8C20 18.2167 19.854 18.571 19.562 18.863C19.2707 19.1543 18.9083 19.3 18.475 19.3ZM6.5 17.8H18.5V17.075C18.5 16.875 18.4417 16.6917 18.325 16.525C18.2083 16.3583 18.05 16.2167 17.85 16.1C16.9833 15.6833 16.1043 15.3623 15.213 15.137C14.321 14.9123 13.4167 14.8 12.5 14.8C11.5833 14.8 10.679 14.9123 9.787 15.137C8.89567 15.3623 8.01667 15.6833 7.15 16.1C6.95 16.2167 6.79167 16.3583 6.675 16.525C6.55833 16.6917 6.5 16.875 6.5 17.075V17.8ZM12.5 10.2C13.05 10.2 13.521 10.004 13.913 9.612C14.3043 9.22067 14.5 8.75 14.5 8.2C14.5 7.65 14.3043 7.179 13.913 6.787C13.521 6.39567 13.05 6.2 12.5 6.2C11.95 6.2 11.4793 6.39567 11.088 6.787C10.696 7.179 10.5 7.65 10.5 8.2C10.5 8.75 10.696 9.22067 11.088 9.612C11.4793 10.004 11.95 10.2 12.5 10.2Z" fill="#D6D6D6"/>
</g>
</svg>
