<svg width="25" height="24" viewBox="0 0 25 24" fill="none" xmlns="http://www.w3.org/2000/svg">
<mask id="mask0_304_330" style="mask-type:alpha" maskUnits="userSpaceOnUse" x="0" y="0" width="25" height="24">
<rect x="0.5" width="24" height="24" fill="#1C1B1F"/>
</mask>
<g mask="url(#mask0_304_330)">
<path d="M19.525 20.05L13.75 14.3C13.25 14.7167 12.675 15.0417 12.025 15.275C11.375 15.5083 10.7084 15.625 10.025 15.625C8.30836 15.625 6.85836 15.0333 5.67502 13.85C4.49169 12.6667 3.90002 11.2167 3.90002 9.5C3.90002 7.8 4.49169 6.354 5.67502 5.162C6.85836 3.97067 8.30836 3.375 10.025 3.375C11.725 3.375 13.1667 3.96667 14.35 5.15C15.5334 6.33333 16.125 7.78333 16.125 9.5C16.125 10.2167 16.0084 10.9 15.775 11.55C15.5417 12.2 15.225 12.7667 14.825 13.25L20.6 19.025C20.7334 19.1583 20.8 19.325 20.8 19.525C20.8 19.725 20.725 19.9 20.575 20.05C20.425 20.2 20.246 20.275 20.038 20.275C19.8294 20.275 19.6584 20.2 19.525 20.05ZM10.025 14.125C11.3084 14.125 12.396 13.675 13.288 12.775C14.1794 11.875 14.625 10.7833 14.625 9.5C14.625 8.21667 14.1794 7.125 13.288 6.225C12.396 5.325 11.3084 4.875 10.025 4.875C8.72502 4.875 7.62936 5.325 6.73802 6.225C5.84602 7.125 5.40002 8.21667 5.40002 9.5C5.40002 10.7833 5.84602 11.875 6.73802 12.775C7.62936 13.675 8.72502 14.125 10.025 14.125Z" fill="#D6D6D6"/>
</g>
</svg>
