<svg width="24" height="24" viewBox="0 0 24 24" fill="none" xmlns="http://www.w3.org/2000/svg">
<mask id="mask0_22_799" style="mask-type:alpha" maskUnits="userSpaceOnUse" x="0" y="0" width="24" height="24">
<rect width="24" height="24" fill="#D9D9D9"/>
</mask>
<g mask="url(#mask0_22_799)">
<path d="M12 12.85C11.7833 12.85 11.6043 12.779 11.463 12.637C11.321 12.4957 11.25 12.3167 11.25 12.1V4.02499C11.25 3.80833 11.321 3.62899 11.463 3.48699C11.6043 3.34566 11.7833 3.27499 12 3.27499C12.2167 3.27499 12.396 3.34566 12.538 3.48699C12.6793 3.62899 12.75 3.80833 12.75 4.02499V12.1C12.75 12.3167 12.6793 12.4957 12.538 12.637C12.396 12.779 12.2167 12.85 12 12.85ZM12 20.35C10.8167 20.35 9.71267 20.125 8.688 19.675C7.66267 19.225 6.76667 18.6167 6 17.85C5.23333 17.0833 4.625 16.1873 4.175 15.162C3.725 14.1373 3.5 13.0333 3.5 11.85C3.5 10.7333 3.71267 9.66233 4.138 8.63699C4.56267 7.61233 5.175 6.69166 5.975 5.87499C6.125 5.72499 6.30433 5.65399 6.513 5.66199C6.721 5.67066 6.9 5.74999 7.05 5.89999C7.18333 6.03333 7.24167 6.19999 7.225 6.39999C7.20833 6.59999 7.13333 6.78333 7 6.94999C6.35 7.61666 5.85433 8.37066 5.513 9.21199C5.171 10.054 5 10.9333 5 11.85C5 13.8 5.67933 15.454 7.038 16.812C8.396 18.1707 10.05 18.85 12 18.85C13.95 18.85 15.604 18.1707 16.962 16.812C18.3207 15.454 19 13.8 19 11.85C19 10.9333 18.8293 10.05 18.488 9.19999C18.146 8.34999 17.65 7.59166 17 6.92499C16.85 6.77499 16.771 6.59999 16.763 6.39999C16.7543 6.19999 16.8167 6.02499 16.95 5.87499C17.1 5.72499 17.2793 5.64999 17.488 5.64999C17.696 5.64999 17.875 5.72499 18.025 5.87499C18.825 6.69166 19.4377 7.61233 19.863 8.63699C20.2877 9.66233 20.5 10.7333 20.5 11.85C20.5 13.0333 20.275 14.1373 19.825 15.162C19.375 16.1873 18.7667 17.0833 18 17.85C17.2333 18.6167 16.3373 19.225 15.312 19.675C14.2873 20.125 13.1833 20.35 12 20.35Z" fill="#141414"/>
</g>
</svg>
