<svg width="24" height="25" viewBox="0 0 24 25" fill="none" xmlns="http://www.w3.org/2000/svg">
<g clip-path="url(#clip0_67_846)">
<path d="M24 12.9402C24 6.2712 18.627 0.865204 12 0.865204C5.36999 0.866704 -0.00300598 6.2712 -0.00300598 12.9417C-0.00300598 18.9672 4.38599 23.9622 10.122 24.8682V16.4307H7.07699V12.9417H10.125V10.2792C10.125 7.2537 11.9175 5.5827 14.658 5.5827C15.972 5.5827 17.3445 5.8182 17.3445 5.8182V8.7882H15.831C14.3415 8.7882 13.8765 9.7197 13.8765 10.6752V12.9402H17.2035L16.6725 16.4292H13.875V24.8667C19.611 23.9607 24 18.9657 24 12.9402Z" fill="#525252"/>
</g>
<defs>
<clipPath id="clip0_67_846">
<rect width="24" height="24" fill="white" transform="translate(0 0.866699)"/>
</clipPath>
</defs>
</svg>
