<svg width="24" height="25" viewBox="0 0 24 25" fill="none" xmlns="http://www.w3.org/2000/svg">
<path d="M12 9.74249C10.2797 9.74249 8.87578 11.1464 8.87578 12.8667C8.87578 14.587 10.2797 15.9909 12 15.9909C13.7203 15.9909 15.1242 14.587 15.1242 12.8667C15.1242 11.1464 13.7203 9.74249 12 9.74249ZM21.3703 12.8667C21.3703 11.573 21.382 10.2909 21.3094 8.99953C21.2367 7.49953 20.8945 6.16828 19.7977 5.0714C18.6984 3.97218 17.3695 3.63234 15.8695 3.55968C14.5758 3.48703 13.2937 3.49874 12.0023 3.49874C10.7086 3.49874 9.42656 3.48703 8.13515 3.55968C6.63515 3.63234 5.3039 3.97453 4.20703 5.0714C3.10781 6.17062 2.76797 7.49953 2.69531 8.99953C2.62265 10.2933 2.63437 11.5753 2.63437 12.8667C2.63437 14.1581 2.62265 15.4425 2.69531 16.7339C2.76797 18.2339 3.11015 19.5651 4.20703 20.662C5.30625 21.7612 6.63515 22.1011 8.13515 22.1737C9.4289 22.2464 10.7109 22.2347 12.0023 22.2347C13.2961 22.2347 14.5781 22.2464 15.8695 22.1737C17.3695 22.1011 18.7008 21.7589 19.7977 20.662C20.8969 19.5628 21.2367 18.2339 21.3094 16.7339C21.3844 15.4425 21.3703 14.1605 21.3703 12.8667ZM12 17.6737C9.33984 17.6737 7.19297 15.5269 7.19297 12.8667C7.19297 10.2066 9.33984 8.05968 12 8.05968C14.6602 8.05968 16.807 10.2066 16.807 12.8667C16.807 15.5269 14.6602 17.6737 12 17.6737ZM17.0039 8.98546C16.3828 8.98546 15.8812 8.4839 15.8812 7.86281C15.8812 7.24171 16.3828 6.74015 17.0039 6.74015C17.625 6.74015 18.1266 7.24171 18.1266 7.86281C18.1267 8.01029 18.0978 8.15636 18.0415 8.29265C17.9851 8.42894 17.9024 8.55277 17.7982 8.65706C17.6939 8.76134 17.57 8.84403 17.4337 8.90038C17.2975 8.95674 17.1514 8.98565 17.0039 8.98546Z" fill="#525252"/>
</svg>
