<svg width="24" height="25" viewBox="0 0 24 25" fill="none" xmlns="http://www.w3.org/2000/svg">
<g clip-path="url(#clip0_67_840)">
<path d="M12 1.34671C5.6376 1.34671 0.480003 6.50431 0.480003 12.8667C0.480003 19.2291 5.6376 24.3867 12 24.3867C18.3624 24.3867 23.52 19.2291 23.52 12.8667C23.52 6.50431 18.3624 1.34671 12 1.34671ZM9.18 17.6415H6.8472V10.1343H9.18V17.6415ZM7.9992 9.21271C7.2624 9.21271 6.786 8.69071 6.786 8.04511C6.786 7.38631 7.2768 6.87991 8.0292 6.87991C8.7816 6.87991 9.2424 7.38631 9.2568 8.04511C9.2568 8.69071 8.7816 9.21271 7.9992 9.21271ZM17.7 17.6415H15.3672V13.4811C15.3672 12.5127 15.0288 11.8551 14.1852 11.8551C13.5408 11.8551 13.158 12.3003 12.9888 12.7287C12.9264 12.8811 12.9108 13.0971 12.9108 13.3119V17.6403H10.5768V12.5283C10.5768 11.5911 10.5468 10.8075 10.5156 10.1331H12.5424L12.6492 11.1759H12.696C13.0032 10.6863 13.7556 9.96391 15.0144 9.96391C16.5492 9.96391 17.7 10.9923 17.7 13.2027V17.6415Z" fill="#525252"/>
</g>
<defs>
<clipPath id="clip0_67_840">
<rect width="24" height="24" fill="white" transform="translate(0 0.866699)"/>
</clipPath>
</defs>
</svg>
