<svg width="24" height="25" viewBox="0 0 24 25" fill="none" xmlns="http://www.w3.org/2000/svg">
<g clip-path="url(#clip0_67_843)">
<path d="M12 1.34671C5.6376 1.34671 0.479996 6.50431 0.479996 12.8667C0.479996 19.2291 5.6376 24.3867 12 24.3867C18.3624 24.3867 23.52 19.2291 23.52 12.8667C23.52 6.50431 18.3624 1.34671 12 1.34671ZM16.686 10.7835C16.6908 10.8819 16.692 10.9803 16.692 11.0763C16.692 14.0763 14.4108 17.5335 10.2372 17.5335C9.00395 17.5356 7.79636 17.1814 6.7596 16.5135C6.936 16.5351 7.1172 16.5435 7.3008 16.5435C8.364 16.5435 9.342 16.1823 10.1184 15.5727C9.64526 15.5634 9.1868 15.4067 8.80693 15.1245C8.42706 14.8423 8.14469 14.4486 7.9992 13.9983C8.33898 14.0629 8.68902 14.0494 9.0228 13.9587C8.50925 13.8549 8.04743 13.5766 7.71565 13.1711C7.38386 12.7656 7.20252 12.2578 7.2024 11.7339V11.7063C7.5084 11.8755 7.8588 11.9787 8.2308 11.9907C7.74935 11.6702 7.40854 11.1779 7.27805 10.6145C7.14756 10.051 7.23726 9.45901 7.5288 8.95951C8.09874 9.66031 8.80951 10.2336 9.61508 10.6423C10.4206 11.051 11.3031 11.2859 12.2052 11.3319C12.0905 10.8451 12.1399 10.334 12.3456 9.87812C12.5513 9.42223 12.9019 9.0471 13.3429 8.81103C13.7838 8.57496 14.2904 8.49118 14.7839 8.57272C15.2773 8.65426 15.73 8.89654 16.0716 9.26191C16.5794 9.16144 17.0664 8.97518 17.5116 8.71111C17.3424 9.23687 16.988 9.68332 16.5144 9.96751C16.9642 9.91333 17.4034 9.7924 17.8176 9.60871C17.5134 10.0646 17.1302 10.4624 16.686 10.7835Z" fill="#525252"/>
</g>
<defs>
<clipPath id="clip0_67_843">
<rect width="24" height="24" fill="white" transform="translate(0 0.866699)"/>
</clipPath>
</defs>
</svg>
